<svg width="49" height="40" viewBox="0 0 49 40" fill="none" xmlns="http://www.w3.org/2000/svg">
<path d="M5.13418 26.4517C9.94331 16.9751 46.5 12.4862 46.5 14.4813C46.5 16.0585 45.5599 15.9776 44.6197 17.9727C43.6796 19.9678 45.5599 19.9677 44.6197 21.9628C43.9147 23.4591 24.8769 24.4567 15.0056 29.9431C15.4756 30.4419 16.1337 30.6413 15.0056 31.4394C13.5954 32.4369 14.0654 31.9381 10.775 31.4394C7.48451 30.9406 2.78385 31.0831 5.13418 26.4517Z" fill="#8CBCFF" fill-opacity="0.4"/>
<path d="M13 19.5153C11.5 12.5153 18.5 7.51529 24 7.51529C29.5 7.51529 37 12.0153 34.9999 19.5153" stroke="#FFCC00" stroke-width="1.3" stroke-linecap="round" stroke-linejoin="round"/>
<path d="M23.7164 1L23.7835 5.03057" stroke="#FFCC00" stroke-width="1.3" stroke-linecap="round"/>
<path d="M42.5 16.0153H38.5" stroke="#FFCC00" stroke-width="1.3" stroke-linecap="round"/>
<path d="M9.5 16.0153H5.5" stroke="#FFCC00" stroke-width="1.3" stroke-linecap="round"/>
<path d="M7.5 9.01529L10.9101 10.8714" stroke="#FFCC00" stroke-width="1.3" stroke-linecap="round"/>
<path d="M15.5 4.01529L16.8033 6.71739" stroke="#FFCC00" stroke-width="1.3" stroke-linecap="round"/>
<path d="M40.5 9.01529L37.0899 10.8714" stroke="#FFCC00" stroke-width="1.3" stroke-linecap="round"/>
<path d="M32.5 4.01529L31.1967 6.71739" stroke="#FFCC00" stroke-width="1.3" stroke-linecap="round"/>
<path d="M10.1534 22.3073H7.03339C7.03339 22.8113 7.03339 23.2713 7.03339 23.6873C7.03339 24.0953 7.03739 24.4793 7.04539 24.8393H10.7534V26.0153H5.37739C5.38539 25.6313 5.39339 25.2953 5.40139 25.0073C5.41739 24.7113 5.42939 24.4073 5.43739 24.0953C5.44539 23.7753 5.45339 23.4113 5.46139 23.0033C5.46939 22.5953 5.47339 22.0833 5.47339 21.4673C5.47339 20.8513 5.46939 20.2193 5.46139 19.5713C5.45339 18.9153 5.43739 18.2633 5.41339 17.6153H10.5254V18.7913H7.05739C7.04139 19.1033 7.03339 19.4593 7.03339 19.8593C7.03339 20.2513 7.03339 20.6993 7.03339 21.2033H10.1534V22.3073ZM16.0308 26.1593C15.8068 25.9513 15.6268 25.7713 15.4908 25.6193C15.3548 25.4593 15.2508 25.2993 15.1788 25.1393C15.0588 25.2593 14.9308 25.3793 14.7948 25.4993C14.6588 25.6193 14.5108 25.7313 14.3508 25.8353C14.1908 25.9313 14.0228 26.0073 13.8468 26.0633C13.6708 26.1273 13.4828 26.1593 13.2828 26.1593C13.0668 26.1593 12.8548 26.1233 12.6468 26.0513C12.4388 25.9793 12.2548 25.8473 12.0948 25.6553C11.9348 25.4633 11.8028 25.2033 11.6988 24.8753C11.6028 24.5473 11.5548 24.1273 11.5548 23.6153C11.5548 22.9913 11.6188 22.4473 11.7468 21.9833C11.8828 21.5113 12.0708 21.1193 12.3108 20.8073C12.5508 20.4953 12.8348 20.2633 13.1628 20.1113C13.4988 19.9513 13.8668 19.8713 14.2668 19.8713C14.5148 19.8713 14.7468 19.9313 14.9628 20.0513C14.9548 19.4033 14.9468 18.8313 14.9388 18.3353C14.9388 17.8393 14.9308 17.3633 14.9148 16.9073L16.5468 16.7753C16.4988 17.7513 16.4708 18.7793 16.4628 19.8593C16.4548 20.9313 16.4508 22.0033 16.4508 23.0753C16.4508 23.3873 16.4588 23.6433 16.4748 23.8433C16.4908 24.0353 16.5228 24.2073 16.5708 24.3593C16.6188 24.5033 16.6828 24.6393 16.7628 24.7673C16.8428 24.8873 16.9468 25.0273 17.0748 25.1873L16.0308 26.1593ZM14.1228 24.7793C14.2988 24.7793 14.4588 24.7513 14.6028 24.6953C14.7468 24.6313 14.8788 24.5513 14.9988 24.4553C14.9828 24.3033 14.9708 24.1313 14.9628 23.9393C14.9628 23.7473 14.9628 23.5233 14.9628 23.2673V21.0593C14.7788 20.8273 14.5308 20.7113 14.2188 20.7113C13.8668 20.7113 13.5948 20.9233 13.4028 21.3473C13.2188 21.7713 13.1268 22.3993 13.1268 23.2313C13.1268 23.5593 13.1508 23.8233 13.1988 24.0233C13.2468 24.2233 13.3148 24.3793 13.4028 24.4913C13.4908 24.6033 13.5948 24.6793 13.7148 24.7193C13.8348 24.7593 13.9708 24.7793 14.1228 24.7793ZM22.0983 26.1593C21.9383 25.9273 21.8103 25.7273 21.7143 25.5593C21.6183 25.3913 21.5463 25.2153 21.4983 25.0313C21.3783 25.1673 21.2503 25.3033 21.1143 25.4393C20.9783 25.5673 20.8263 25.6873 20.6583 25.7993C20.4983 25.9033 20.3263 25.9873 20.1423 26.0513C19.9583 26.1233 19.7583 26.1593 19.5423 26.1593C19.3423 26.1593 19.1463 26.1233 18.9543 26.0513C18.7703 25.9793 18.6063 25.8593 18.4623 25.6913C18.3183 25.5233 18.2023 25.2953 18.1143 25.0073C18.0263 24.7193 17.9823 24.3593 17.9823 23.9273C17.9823 23.8233 17.9823 23.6633 17.9823 23.4473C17.9903 23.2233 17.9983 22.9913 18.0063 22.7513C18.0143 22.5033 18.0183 22.2673 18.0183 22.0433C18.0263 21.8193 18.0303 21.6473 18.0303 21.5273C18.0303 21.2633 18.0103 21.0113 17.9703 20.7713C17.9383 20.5233 17.8783 20.3193 17.7903 20.1593L19.4343 19.8713C19.4903 20.0553 19.5223 20.2553 19.5303 20.4713C19.5463 20.6873 19.5543 20.8753 19.5543 21.0353C19.5543 21.2673 19.5463 21.4993 19.5303 21.7313C19.5223 21.9633 19.5103 22.1913 19.4943 22.4153C19.4863 22.6313 19.4743 22.8393 19.4583 23.0393C19.4503 23.2313 19.4463 23.3993 19.4463 23.5433C19.4463 24.0153 19.5263 24.3393 19.6863 24.5153C19.8463 24.6913 20.0663 24.7793 20.3463 24.7793C20.5783 24.7793 20.7783 24.7393 20.9463 24.6593C21.1143 24.5793 21.2663 24.4833 21.4023 24.3713C21.3943 24.2273 21.3903 24.0673 21.3903 23.8913C21.3903 23.7073 21.3903 23.4993 21.3903 23.2673C21.3903 22.8993 21.3903 22.5673 21.3903 22.2713C21.3903 21.9753 21.3863 21.6993 21.3783 21.4433C21.3783 21.1873 21.3743 20.9473 21.3663 20.7233C21.3663 20.4913 21.3623 20.2553 21.3543 20.0153H22.9743C22.9663 20.2073 22.9583 20.4233 22.9503 20.6633C22.9423 20.9033 22.9303 21.1593 22.9143 21.4313C22.9063 21.6953 22.8983 21.9713 22.8903 22.2593C22.8823 22.5393 22.8783 22.8113 22.8783 23.0753C22.8783 23.3873 22.8863 23.6433 22.9023 23.8433C22.9183 24.0353 22.9503 24.2073 22.9983 24.3593C23.0463 24.5033 23.1103 24.6393 23.1903 24.7673C23.2703 24.8873 23.3743 25.0273 23.5023 25.1873L22.0983 26.1593ZM24.6204 17.7353C24.9804 17.6713 25.3844 17.6153 25.8324 17.5673C26.2884 17.5113 26.7284 17.4833 27.1524 17.4833C27.8324 17.4833 28.3884 17.5553 28.8204 17.6993C29.2604 17.8433 29.6044 18.0313 29.8524 18.2633C30.1004 18.4873 30.2684 18.7433 30.3564 19.0313C30.4524 19.3113 30.5004 19.5913 30.5004 19.8713C30.5004 20.3753 30.3844 20.8153 30.1524 21.1913C29.9284 21.5593 29.6084 21.8513 29.1924 22.0673C29.4404 22.1873 29.6444 22.3273 29.8044 22.4873C29.9724 22.6393 30.1044 22.8273 30.2004 23.0513C30.2964 23.2753 30.3604 23.5433 30.3924 23.8553C30.4324 24.1593 30.4524 24.5153 30.4524 24.9233C30.4524 25.2513 30.4404 25.6153 30.4164 26.0153L28.7484 26.1593C28.7724 25.8953 28.7924 25.6433 28.8084 25.4033C28.8244 25.1633 28.8324 24.9353 28.8324 24.7193C28.8324 24.3673 28.8044 24.0593 28.7484 23.7953C28.6924 23.5313 28.5924 23.3113 28.4484 23.1353C28.3044 22.9513 28.1084 22.8153 27.8604 22.7273C27.6204 22.6393 27.3084 22.5953 26.9244 22.5953C26.8364 22.5953 26.7324 22.5993 26.6124 22.6073C26.4924 22.6073 26.3684 22.6153 26.2404 22.6313C26.2404 23.2953 26.2404 23.8953 26.2404 24.4313C26.2484 24.9673 26.2604 25.4953 26.2764 26.0153H24.5844C24.6004 25.6313 24.6124 25.2953 24.6204 25.0073C24.6364 24.7113 24.6484 24.4073 24.6564 24.0953C24.6644 23.7753 24.6684 23.4193 24.6684 23.0273C24.6764 22.6353 24.6804 22.1473 24.6804 21.5633C24.6804 20.8913 24.6764 20.2473 24.6684 19.6313C24.6604 19.0153 24.6444 18.3833 24.6204 17.7353ZM27.3084 18.5513C27.1484 18.5513 26.9804 18.5673 26.8044 18.5993C26.6284 18.6233 26.4484 18.6593 26.2644 18.7073C26.2484 19.0433 26.2404 19.4233 26.2404 19.8473C26.2404 20.2633 26.2404 20.7673 26.2404 21.3593V21.5153C26.4644 21.5633 26.7244 21.5873 27.0204 21.5873C27.6204 21.5873 28.0844 21.4593 28.4124 21.2033C28.7484 20.9393 28.9164 20.5553 28.9164 20.0513C28.9164 19.5873 28.7724 19.2233 28.4844 18.9593C28.2044 18.6873 27.8124 18.5513 27.3084 18.5513ZM33.4561 20.0153C33.4321 20.1993 33.4121 20.3753 33.3961 20.5433C33.3881 20.7113 33.3801 20.8993 33.3721 21.1073C33.3721 21.3073 33.3681 21.5433 33.3601 21.8153C33.3601 22.0793 33.3601 22.3953 33.3601 22.7633C33.3601 23.1313 33.3601 23.4633 33.3601 23.7593C33.3601 24.0553 33.3601 24.3313 33.3601 24.5873C33.3681 24.8433 33.3721 25.0873 33.3721 25.3193C33.3801 25.5433 33.3881 25.7753 33.3961 26.0153H31.7761C31.7841 25.7193 31.7921 25.4593 31.8001 25.2353C31.8161 25.0113 31.8281 24.7753 31.8361 24.5273C31.8441 24.2713 31.8521 23.9873 31.8601 23.6753C31.8681 23.3553 31.8721 22.9593 31.8721 22.4873C31.8721 22.0553 31.8681 21.6513 31.8601 21.2753C31.8521 20.8913 31.8361 20.4713 31.8121 20.0153H33.4561ZM31.7761 18.0593C31.7761 17.8353 31.8521 17.6433 32.0041 17.4833C32.1641 17.3153 32.3801 17.2313 32.6521 17.2313C32.8841 17.2313 33.0841 17.2993 33.2521 17.4353C33.4281 17.5713 33.5161 17.7553 33.5161 17.9873C33.5161 18.2113 33.4321 18.3993 33.2641 18.5513C33.1041 18.7033 32.8881 18.7793 32.6161 18.7793C32.3841 18.7793 32.1841 18.7193 32.0161 18.5993C31.8561 18.4713 31.7761 18.2913 31.7761 18.0593ZM36.587 24.8873C36.811 24.8873 36.971 24.8433 37.067 24.7553C37.163 24.6673 37.211 24.5433 37.211 24.3833C37.211 24.2793 37.191 24.1913 37.151 24.1193C37.119 24.0473 37.063 23.9833 36.983 23.9273C36.911 23.8713 36.815 23.8193 36.695 23.7713C36.575 23.7153 36.431 23.6553 36.263 23.5913C36.071 23.5193 35.875 23.4393 35.675 23.3513C35.483 23.2633 35.307 23.1513 35.147 23.0153C34.995 22.8793 34.871 22.7033 34.775 22.4873C34.679 22.2713 34.631 21.9993 34.631 21.6713C34.631 21.2873 34.703 20.9793 34.847 20.7473C34.999 20.5073 35.183 20.3233 35.399 20.1953C35.615 20.0673 35.847 19.9833 36.095 19.9433C36.343 19.8953 36.571 19.8713 36.779 19.8713C37.011 19.8713 37.263 19.8913 37.535 19.9313C37.807 19.9713 38.035 20.0273 38.219 20.0993V21.3713C38.083 21.3233 37.939 21.2833 37.787 21.2513C37.635 21.2113 37.487 21.1793 37.343 21.1553C37.199 21.1313 37.063 21.1153 36.935 21.1073C36.807 21.0913 36.703 21.0833 36.623 21.0833C36.111 21.0833 35.855 21.2593 35.855 21.6113C35.855 21.8593 35.967 22.0473 36.191 22.1753C36.415 22.2953 36.691 22.4153 37.019 22.5353C37.219 22.6073 37.407 22.6913 37.583 22.7873C37.759 22.8753 37.911 22.9913 38.039 23.1353C38.175 23.2713 38.279 23.4433 38.351 23.6513C38.431 23.8593 38.471 24.1113 38.471 24.4073C38.471 25.0153 38.303 25.4593 37.967 25.7393C37.631 26.0193 37.195 26.1593 36.659 26.1593C36.371 26.1593 36.055 26.1193 35.711 26.0393C35.367 25.9593 35.027 25.8353 34.691 25.6673L34.643 24.3113C34.747 24.3833 34.879 24.4553 35.039 24.5273C35.199 24.5913 35.371 24.6513 35.555 24.7073C35.739 24.7553 35.919 24.7993 36.095 24.8393C36.279 24.8713 36.443 24.8873 36.587 24.8873ZM40.8648 23.3033C40.9048 23.9113 41.0288 24.3393 41.2368 24.5873C41.4448 24.8273 41.7608 24.9473 42.1848 24.9473C42.5048 24.9473 42.8048 24.8993 43.0848 24.8033C43.3728 24.7073 43.6088 24.6193 43.7928 24.5393V25.5353C43.5368 25.7673 43.2168 25.9273 42.8328 26.0153C42.4488 26.1113 42.0768 26.1593 41.7168 26.1593C41.4208 26.1593 41.1288 26.1233 40.8408 26.0513C40.5528 25.9793 40.2928 25.8433 40.0608 25.6433C39.8368 25.4353 39.6528 25.1513 39.5088 24.7913C39.3728 24.4233 39.3048 23.9433 39.3048 23.3513C39.3048 22.7673 39.3768 22.2593 39.5208 21.8273C39.6648 21.3873 39.8608 21.0233 40.1088 20.7353C40.3648 20.4473 40.6608 20.2313 40.9968 20.0873C41.3408 19.9433 41.7128 19.8713 42.1128 19.8713C42.5208 19.8713 42.8528 19.9433 43.1088 20.0873C43.3728 20.2233 43.5768 20.3993 43.7208 20.6153C43.8728 20.8313 43.9728 21.0713 44.0208 21.3353C44.0768 21.5993 44.1048 21.8553 44.1048 22.1033C44.1048 22.3593 44.0848 22.5913 44.0448 22.7993C44.0128 23.0073 43.9688 23.1753 43.9128 23.3033H40.8648ZM41.8968 20.7473C41.5848 20.7473 41.3408 20.8833 41.1648 21.1553C40.9968 21.4193 40.8968 21.8393 40.8648 22.4153H42.8448C42.8448 22.3833 42.8448 22.3433 42.8448 22.2953C42.8528 22.2473 42.8568 22.2033 42.8568 22.1633C42.8568 22.0353 42.8448 21.8913 42.8208 21.7313C42.7968 21.5633 42.7488 21.4073 42.6768 21.2633C42.6048 21.1193 42.5048 20.9993 42.3768 20.9033C42.2568 20.7993 42.0968 20.7473 41.8968 20.7473Z" fill="#2A2A2A"/>
</svg>
