<svg width="405" height="405" viewBox="0 0 405 405" fill="none" xmlns="http://www.w3.org/2000/svg">
<path d="M377.328 268.251C338.103 359.933 234.563 399.313 153.438 392.598C131.288 390.765 86.7208 387.077 51.9223 354.169C-14.9055 290.972 -4.61347 158.872 59.36 81.0992C67.5984 71.0838 124.624 3.98064 213.487 4.87874C278.548 5.53646 324.214 42.2885 329.767 46.867C336.781 52.6511 352.253 66.3957 366.196 88.2007C398.959 139.435 401.839 210.958 377.328 268.251Z" fill="url(#paint0_linear_41_13)"/>
<path d="M313.532 362.114C313.532 362.114 283.535 269.821 291.805 223.069C299.186 181.345 313.517 123.318 316.514 111.319C316.719 110.498 317.822 110.346 318.239 111.083C325.068 123.133 358.679 188.691 333.465 271.714C305.512 363.755 313.532 362.114 313.532 362.114Z" fill="#91B3FA"/>
<path opacity="0.43" d="M321.464 141.199C321.739 154.96 321.353 168.707 320.595 182.437C319.83 196.166 318.578 209.87 316.819 223.513C315.921 230.332 314.878 237.132 313.7 243.911C312.495 250.685 311.115 257.428 309.576 264.137C307.982 270.834 306.214 277.491 304.204 284.08C302.146 290.655 299.853 297.158 297.255 303.547C297.099 303.931 296.661 304.115 296.278 303.959C295.894 303.803 295.71 303.366 295.866 302.983L295.867 302.98L295.87 302.972C298.476 296.643 300.782 290.191 302.858 283.662C304.885 277.117 306.675 270.497 308.291 263.834C309.853 257.158 311.258 250.443 312.489 243.694C313.692 236.941 314.763 230.163 315.688 223.363C317.503 209.759 318.812 196.085 319.636 182.381C320.452 168.68 320.897 154.939 320.682 141.222V141.214C320.679 140.998 320.851 140.82 321.067 140.817C321.283 140.813 321.46 140.984 321.464 141.199Z" fill="white"/>
<path d="M306.642 382.11C306.642 382.11 312.394 285.236 337.156 244.726C359.254 208.573 393.773 159.778 400.942 149.701C401.433 149.011 402.515 149.272 402.635 150.11C404.595 163.822 411.963 237.124 358.19 305.219C298.576 380.711 306.642 382.11 306.642 382.11Z" fill="#BDD0FB"/>
<path opacity="0.43" d="M394.646 179.326C389.88 192.238 384.505 204.896 378.788 217.403C373.065 229.906 366.899 242.208 360.282 254.268C356.958 260.289 353.504 266.24 349.934 272.121C346.34 277.988 342.595 283.762 338.713 289.447C334.786 295.101 330.71 300.653 326.435 306.054C322.119 311.424 317.611 316.642 312.86 321.643C312.575 321.943 312.1 321.955 311.8 321.67C311.499 321.385 311.487 320.91 311.773 320.61L311.775 320.608L311.781 320.602C316.516 315.66 321.019 310.495 325.334 305.173C329.61 299.819 333.691 294.31 337.628 288.696C341.519 283.05 345.277 277.311 348.886 271.477C352.471 265.629 355.942 259.709 359.284 253.715C365.938 241.712 372.147 229.459 377.915 217.001C383.676 204.542 389.105 191.911 393.911 179.062L393.914 179.054C393.989 178.852 394.214 178.75 394.416 178.825C394.619 178.901 394.722 179.124 394.646 179.326Z" fill="white"/>
<path d="M0.784379 135.874C9.72378 161.55 66.2858 308.621 178.133 273.758C178.133 273.758 159.375 166.163 2.56084 132.739C1.18902 132.447 0.200493 134.197 0.784379 135.874Z" fill="#BDD0FB"/>
<path opacity="0.43" d="M19.896 150.21C24.6856 156.739 29.7297 163.094 34.8735 169.356C40.0273 175.612 45.3163 181.756 50.7387 187.78C61.5863 199.822 72.9616 211.397 85.0071 222.231C97.0575 233.045 109.779 243.162 123.474 251.779C126.902 253.92 130.379 255.985 133.934 257.904C137.491 259.819 141.11 261.616 144.795 263.26C152.17 266.529 159.84 269.152 167.725 270.763L167.73 270.764C168.136 270.847 168.397 271.243 168.314 271.648C168.232 272.054 167.835 272.316 167.43 272.233L167.426 272.232C159.416 270.559 151.662 267.865 144.228 264.53C140.513 262.853 136.871 261.025 133.295 259.078C129.721 257.129 126.229 255.034 122.789 252.864C109.049 244.133 96.3283 233.922 84.2919 223.023C72.2609 212.106 60.9162 200.457 50.1047 188.348C44.7007 182.291 39.4317 176.115 34.2987 169.827C29.1743 163.532 24.1575 157.153 19.3797 150.58C19.2766 150.439 19.3081 150.24 19.4499 150.137C19.5918 150.034 19.7906 150.065 19.8937 150.207L19.896 150.21Z" fill="white"/>
<path d="M85.3373 3.09681C85.6835 0.812746 87.8165 1.2592 89.6288 2.69159C188.86 81.1082 227.915 228.329 202.258 270.613C202.258 270.613 47.6267 251.958 85.3373 3.09681Z" fill="#91B3FA"/>
<path opacity="0.43" d="M92.1032 33.427C92.2001 33.9806 92.3515 34.6001 92.4838 35.1945L92.9163 36.9904L93.821 40.5746C94.4378 42.9612 95.0803 45.3413 95.729 47.7197C97.0404 52.4727 98.411 57.2091 99.8248 61.9324C102.641 71.3821 105.635 80.7785 108.812 90.1119C115.196 108.766 122.169 127.224 130.07 145.284C134.054 154.296 138.128 163.272 142.553 172.076C143.088 173.186 143.649 174.282 144.219 175.374L145.914 178.657L147.61 181.939C148.183 183.029 148.783 184.105 149.369 185.188C150.554 187.347 151.707 189.524 152.918 191.668L156.594 198.077C156.901 198.61 157.199 199.149 157.514 199.678L158.471 201.258L160.384 204.418L162.296 207.579C162.947 208.624 163.625 209.652 164.288 210.689L166.288 213.795C166.964 214.824 167.601 215.879 168.314 216.883L172.501 222.97C178.185 231.014 184.254 238.786 190.758 246.195L190.76 246.197C190.849 246.299 190.839 246.453 190.738 246.541C190.638 246.629 190.487 246.62 190.398 246.523C183.7 239.258 177.514 231.533 171.679 223.556L167.416 217.491C166.69 216.491 166.041 215.439 165.352 214.413L163.314 211.318C162.638 210.284 161.947 209.259 161.283 208.217L159.332 205.066L157.381 201.914L156.405 200.339C156.083 199.811 155.779 199.274 155.465 198.742C145.416 181.717 136.592 163.992 128.718 145.872L125.801 139.061L122.987 132.208C122.033 129.93 121.16 127.62 120.245 125.326L118.887 121.88L117.575 118.416C114.059 109.186 110.733 99.8841 107.65 90.5022C104.558 81.1236 101.614 71.6962 98.9155 62.1979C97.5731 57.4467 96.2746 52.6835 95.0353 47.9049C94.4229 45.5135 93.8165 43.1206 93.236 40.7211L92.385 37.1163L91.9795 35.3081C91.8556 34.6963 91.7147 34.1166 91.6157 33.4519C91.5959 33.3197 91.687 33.1965 91.8193 33.1769C91.9494 33.1575 92.0705 33.2456 92.0934 33.3742L92.1032 33.427Z" fill="white"/>
<path d="M64.8547 391.77L348.281 391.77V335.043L64.8547 335.043C70.9213 335.043 70.9213 391.77 64.8547 391.77Z" fill="#91B3FA"/>
<path d="M348.281 377.574V351.613C348.281 342.462 342.68 335.043 335.771 335.043H66.0499C60.6164 335.043 56.2118 330.638 56.2118 325.205C56.2118 323.554 57.5502 322.216 59.2009 322.216H353.985C360.745 322.216 371.479 332.844 371.479 345.956V382.213C371.479 394.575 361.059 404.597 354.685 404.597H60.7516C58.2445 404.597 56.2118 402.564 56.2118 400.057C56.2118 395.48 59.922 391.77 64.4987 391.77H337.564C343.483 391.77 348.281 385.414 348.281 377.574Z" fill="url(#paint1_linear_41_13)"/>
<path d="M340.42 347.17H74.6695C74.3999 347.17 74.1818 346.951 74.1818 346.682C74.1818 346.413 74.3999 346.194 74.6695 346.194H340.42C340.69 346.194 340.908 346.413 340.908 346.682C340.908 346.951 340.69 347.17 340.42 347.17Z" fill="url(#paint2_linear_41_13)"/>
<path d="M340.42 355.59H74.6695C74.3999 355.59 74.1818 355.371 74.1818 355.102C74.1818 354.833 74.3999 354.614 74.6695 354.614H340.42C340.69 354.614 340.908 354.833 340.908 355.102C340.908 355.371 340.69 355.59 340.42 355.59Z" fill="url(#paint3_linear_41_13)"/>
<path d="M340.42 364.01H74.6695C74.3999 364.01 74.1818 363.792 74.1818 363.522C74.1818 363.253 74.3999 363.035 74.6695 363.035H340.42C340.69 363.035 340.908 363.253 340.908 363.522C340.908 363.792 340.69 364.01 340.42 364.01Z" fill="url(#paint4_linear_41_13)"/>
<path d="M340.42 372.43H74.6695C74.3999 372.43 74.1818 372.212 74.1818 371.943C74.1818 371.673 74.3999 371.455 74.6695 371.455H340.42C340.69 371.455 340.908 371.673 340.908 371.943C340.908 372.212 340.69 372.43 340.42 372.43Z" fill="url(#paint5_linear_41_13)"/>
<path d="M340.42 380.85H74.6695C74.3999 380.85 74.1818 380.632 74.1818 380.363C74.1818 380.093 74.3999 379.875 74.6695 379.875H340.42C340.69 379.875 340.908 380.093 340.908 380.363C340.908 380.632 340.69 380.85 340.42 380.85Z" fill="url(#paint6_linear_41_13)"/>
<path d="M102.651 321.958H338.079C343.492 321.958 347.88 317.57 347.88 312.157V270.198C347.88 264.785 343.492 260.397 338.079 260.397H102.651C97.2381 260.397 92.8501 264.785 92.8501 270.198V312.157C92.8502 317.57 97.2382 321.958 102.651 321.958Z" fill="#7D97F4"/>
<path d="M290.142 314.883H318.014C318.59 314.883 319.058 314.415 319.058 313.838V268.517C319.058 267.94 318.59 267.472 318.014 267.472H290.142C289.565 267.472 289.098 267.94 289.098 268.517V313.838C289.098 314.415 289.565 314.883 290.142 314.883Z" fill="#91B3FA"/>
<path d="M273.979 314.883H284.162C284.454 314.883 284.691 314.646 284.691 314.353V268.002C284.691 267.709 284.454 267.472 284.162 267.472H273.979C273.686 267.472 273.449 267.709 273.449 268.001V314.353C273.449 314.646 273.686 314.883 273.979 314.883Z" fill="#91B3FA"/>
<path d="M77.5677 260.723H366.964C368.565 260.723 369.862 259.426 369.862 257.825V210.009C369.862 208.409 368.565 207.111 366.964 207.111H77.5677C75.9673 207.111 74.6699 208.409 74.6699 210.009V257.825C74.6699 259.426 75.9671 260.723 77.5677 260.723Z" fill="url(#paint7_linear_41_13)"/>
<path d="M305.355 253.1H332.969C334.92 253.1 336.501 251.519 336.501 249.568V220.529C336.501 218.578 334.92 216.997 332.969 216.997H305.355C303.404 216.997 301.823 218.578 301.823 220.529V249.568C301.823 251.519 303.404 253.1 305.355 253.1Z" fill="#7D97F4"/>
<path d="M287 253.1H296.433C297.421 253.1 298.222 252.299 298.222 251.311V218.786C298.222 217.798 297.421 216.997 296.433 216.997H287C286.012 216.997 285.211 217.798 285.211 218.786V251.311C285.211 252.299 286.012 253.1 287 253.1Z" fill="#7D97F4"/>
<path d="M341.78 251.623H347.957C348.946 251.623 349.747 250.822 349.747 249.834V217.309C349.747 216.321 348.946 215.52 347.957 215.52H341.78C340.792 215.52 339.99 216.321 339.99 217.309V249.834C339.99 250.822 340.792 251.623 341.78 251.623Z" fill="#7D97F4"/>
<path d="M81.2808 277.661C81.3868 277.62 138.36 177.847 146.058 168.457C147.354 166.878 149.358 166.074 151.386 166.316L167.288 168.211L185.97 208.626L154.847 190.5C157.927 211.799 117.945 243.452 104.233 255.002C102.841 256.174 102.727 258.273 103.984 259.589L109.458 265.319C100.471 274.429 90.1001 280.279 78.3953 282.984L81.2808 277.661Z" fill="url(#paint8_linear_41_13)"/>
<path d="M106.292 262.227C106.292 262.227 109.786 263.356 110.968 266.467C111.534 267.956 110.924 269.642 109.629 270.57C103.876 274.692 84.8998 287.998 76.1428 290.604C75.425 290.818 74.742 290.169 74.9035 289.437C75.353 287.403 76.8066 283.34 81.4896 277.393L81.0694 278.243C80.5377 279.319 81.7088 280.438 82.7537 279.849C88.611 276.543 100.541 269.306 106.292 262.227Z" fill="url(#paint9_linear_41_13)"/>
<path d="M103.472 302.149C103.568 302.087 112.116 281.493 112.211 281.432C120.048 233.715 139.17 192.848 144.809 182.095C145.758 180.287 147.558 179.093 149.593 178.92L165.55 177.557L192.024 213.355L157.877 201.903C165.203 222.138 132.455 261.228 121.364 275.314C120.238 276.743 120.551 278.822 122.048 279.856L128.569 284.36C121.611 295.1 112.639 302.928 101.724 307.946L103.472 302.149Z" fill="url(#paint10_linear_41_13)"/>
<path d="M124.842 281.972C124.842 281.972 128.492 282.37 130.28 285.179C131.136 286.522 130.879 288.297 129.799 289.467C124.999 294.668 109.108 311.54 101.06 315.864C100.4 316.219 99.6002 315.721 99.6103 314.972C99.6387 312.889 100.24 308.616 103.623 301.844L103.383 302.762C103.08 303.923 104.454 304.782 105.358 303.993C110.424 299.57 120.643 290.068 124.842 281.972Z" fill="url(#paint11_linear_41_13)"/>
<path d="M240.241 170.018C240.241 170.018 254.675 191.488 255.86 201.282C257.044 211.075 251.869 214.462 236.76 215.711C191.8 219.428 169.637 205.953 169.637 205.953C166.561 186.343 164.373 181.354 138.686 170.692C138.686 170.692 171.175 173.271 177.714 170.734C184.252 168.196 240.241 170.018 240.241 170.018Z" fill="url(#paint12_linear_41_13)"/>
<path d="M182.68 49.7299C182.68 49.7299 192.733 37.8347 203.422 52.4291C205.358 55.0724 212.793 52.8917 215.518 58.4244C216.926 61.2811 219.966 62.9039 223.097 62.3262C230.897 60.8876 243.645 60.7665 249.94 72.9887C254.744 82.3179 251.035 87.7778 246.232 90.8904C242.705 93.1768 241.446 97.8183 243.579 101.44C245.625 104.915 246.009 109.619 240.726 115.281C228.888 127.969 205.454 107.229 205.454 107.229L186.847 63.2612L182.68 49.7299Z" fill="url(#paint13_linear_41_13)"/>
<path d="M201.203 167.176C201.203 167.176 184.394 151.17 176.12 140.568C171.647 134.837 170.242 127.293 172.311 120.325C176.088 107.597 182.802 94.4155 183.414 92.3638C184.353 89.2191 203.2 89.35 203.2 89.35C203.2 89.35 240.289 113.421 254.861 154.195L238.496 159.29C238.496 159.29 228.812 143.044 219.244 132.715C219.244 132.715 235.8 154.586 236.383 163.54L201.203 167.176Z" fill="url(#paint14_linear_41_13)"/>
<path d="M169.176 173.492L181.807 159.75L196.393 163.678C196.393 163.678 213.4 166.312 223.133 163.678C232.866 161.043 232.866 161.043 232.866 161.043L254.861 154.195L258.316 163.958C259.193 166.437 258.311 169.188 256.168 170.711C254.265 172.064 252.035 173.55 250.613 174.172C247.716 175.439 183.888 174.572 183.888 174.572L169.176 173.492Z" fill="url(#paint15_linear_41_13)"/>
<path d="M190.247 66.6887L202.914 90.2445C202.078 95.3866 189.127 95.5315 187.126 92.4611C186.923 92.1487 186.806 91.7872 186.729 91.4222L179.151 75.6829C178.826 74.1481 183.033 68.9766 184.418 68.2396L189.453 65.5594C191.392 64.5275 183.302 64.4464 190.247 66.6887Z" fill="url(#paint16_linear_41_13)"/>
<path d="M164.61 61.1603C164.61 61.1603 163.18 69.1187 169.435 79.2374C175.69 89.3561 181.919 88.8992 185.084 85.2907C188.248 81.6821 192.039 75.6719 190.314 65.5796C188.589 55.4874 166.77 51.0116 164.61 61.1603Z" fill="url(#paint17_linear_41_13)"/>
<path d="M182.742 66.6764C182.742 66.6764 172.613 53.3725 164.837 64.97L164.968 68.9763C164.968 68.9763 154.856 68.5035 155.953 59.1834C157.049 49.863 165.305 43.4961 176.75 46.6804C188.195 49.8647 194.882 53.4912 196.175 61.4375C197.467 69.3837 190.979 68.0854 190.979 68.0854C190.979 68.0854 188.5 62.6025 185.508 62.2283C182.515 61.8538 183.596 66.1907 183.596 66.1907L182.742 66.6764Z" fill="url(#paint18_linear_41_13)"/>
<path d="M185.066 66.3217C185.066 66.3217 179.819 59.5132 184.595 58.1003C189.371 56.6872 189.193 64.7715 188.881 67.779L185.066 66.3217Z" fill="url(#paint19_linear_41_13)"/>
<path d="M210.985 178.931C210.941 178.933 210.896 178.934 210.851 178.934L152.756 178.87C151.32 178.869 150.157 177.704 150.158 176.268C150.16 174.831 151.33 173.644 152.762 173.67L210.857 173.733C212.293 173.734 213.456 174.9 213.455 176.336C213.453 177.728 212.359 178.863 210.985 178.931Z" fill="url(#paint20_linear_41_13)"/>
<path d="M100.531 126.184H148.913C152.482 126.184 155.731 128.244 157.253 131.472L179.62 178.9H119.494C117.194 178.9 115.128 177.494 114.282 175.355L96.9377 131.468C95.9357 128.932 97.8044 126.184 100.531 126.184Z" fill="url(#paint21_linear_41_13)"/>
<path d="M134.617 150.502C135.665 153.759 134.891 156.923 132.887 157.568C130.883 158.213 128.409 156.095 127.36 152.837C126.312 149.58 127.086 146.417 129.09 145.772C131.094 145.127 133.568 147.244 134.617 150.502Z" fill="#91B3FA"/>
<path d="M315.849 106.563C345.048 106.563 368.719 82.8921 368.719 53.6929C368.719 24.4937 345.048 0.82312 315.849 0.82312C286.65 0.82312 262.979 24.4937 262.979 53.6929C262.979 82.8921 286.65 106.563 315.849 106.563Z" fill="#7D97F4"/>
<path d="M274.239 80.4892C274.077 80.4892 273.919 80.4092 273.826 80.2625C268.796 72.3249 266.138 63.1373 266.138 53.6929C266.138 26.2819 288.438 3.98163 315.849 3.98163C316.309 3.98163 316.765 3.98638 317.22 4.00095C319.368 4.05906 321.529 4.2572 323.64 4.58959C323.906 4.63156 324.088 4.88103 324.046 5.14738C324.004 5.41315 323.755 5.59485 323.489 5.55317C321.418 5.22712 319.3 5.03302 317.191 4.97592C316.744 4.96193 316.299 4.95717 315.849 4.95717C288.976 4.95717 267.113 26.8201 267.113 53.6931C267.113 62.9522 269.719 71.9595 274.65 79.7407C274.794 79.9681 274.727 80.2693 274.499 80.4137C274.418 80.4647 274.328 80.4892 274.239 80.4892Z" fill="#BDD0FB"/>
<path d="M312.699 103.305C312.688 103.305 312.678 103.305 312.667 103.304C304.354 102.779 296.251 100.142 289.234 95.6806C286.85 94.1679 284.577 92.4373 282.479 90.5367C282.279 90.3559 282.264 90.0476 282.445 89.8477C282.625 89.6481 282.934 89.6327 283.133 89.8137C285.191 91.6772 287.419 93.3739 289.757 94.8574C296.635 99.2314 304.579 101.816 312.729 102.331C312.997 102.348 313.202 102.579 313.185 102.848C313.169 103.106 312.954 103.305 312.699 103.305Z" fill="#BDD0FB"/>
<path d="M356.984 27.1356C356.825 27.1356 356.67 27.0585 356.576 26.9163C352.67 20.9867 347.411 15.8853 341.367 12.164C341.138 12.0228 341.066 11.7223 341.207 11.4928C341.349 11.2635 341.649 11.1916 341.878 11.3333C348.043 15.129 353.407 20.332 357.391 26.3795C357.539 26.6046 357.477 26.907 357.252 27.0551C357.169 27.1096 357.076 27.1356 356.984 27.1356Z" fill="#BDD0FB"/>
<path d="M315.849 31.0735L271.642 44.5482L315.849 58.0228L360.056 44.5482L315.849 31.0735Z" fill="white"/>
<path d="M315.849 62.7467L288.026 54.266V73.6394C288.026 76.8191 290.25 79.5694 293.361 80.2288C308.302 83.3967 322.669 83.495 336.426 80.3325C339.473 79.6319 341.622 76.9016 341.622 73.7748V54.8909L315.849 62.7467Z" fill="white"/>
<path d="M281.881 70.7828C279.464 71.8565 277.351 71.879 275.54 70.8504C275.011 70.5496 274.748 69.9313 274.868 69.3344L278.802 49.7711L282.707 69.1865C282.84 69.8459 282.496 70.5097 281.881 70.7828Z" fill="white"/>
<path d="M315.849 42.5521L278.23 46.5495V53.0753H279.345L279.459 47.3562L315.849 42.5521Z" fill="white"/>
<defs>
<linearGradient id="paint0_linear_41_13" x1="417.108" y1="443.835" x2="131.648" y2="135.718" gradientUnits="userSpaceOnUse">
<stop stop-color="#DAE3FE"/>
<stop offset="1" stop-color="#E9EFFD"/>
</linearGradient>
<linearGradient id="paint1_linear_41_13" x1="56.2118" y1="363.406" x2="371.479" y2="363.406" gradientUnits="userSpaceOnUse">
<stop stop-color="#4F52FF"/>
<stop offset="1" stop-color="#4042E2"/>
</linearGradient>
<linearGradient id="paint2_linear_41_13" x1="74.1817" y1="346.682" x2="340.908" y2="346.682" gradientUnits="userSpaceOnUse">
<stop stop-color="#DAE3FE"/>
<stop offset="1" stop-color="#E9EFFD"/>
</linearGradient>
<linearGradient id="paint3_linear_41_13" x1="74.1817" y1="355.102" x2="340.908" y2="355.102" gradientUnits="userSpaceOnUse">
<stop stop-color="#DAE3FE"/>
<stop offset="1" stop-color="#E9EFFD"/>
</linearGradient>
<linearGradient id="paint4_linear_41_13" x1="74.1817" y1="363.522" x2="340.908" y2="363.522" gradientUnits="userSpaceOnUse">
<stop stop-color="#DAE3FE"/>
<stop offset="1" stop-color="#E9EFFD"/>
</linearGradient>
<linearGradient id="paint5_linear_41_13" x1="74.1817" y1="371.943" x2="340.908" y2="371.943" gradientUnits="userSpaceOnUse">
<stop stop-color="#DAE3FE"/>
<stop offset="1" stop-color="#E9EFFD"/>
</linearGradient>
<linearGradient id="paint6_linear_41_13" x1="74.1817" y1="380.363" x2="340.908" y2="380.363" gradientUnits="userSpaceOnUse">
<stop stop-color="#DAE3FE"/>
<stop offset="1" stop-color="#E9EFFD"/>
</linearGradient>
<linearGradient id="paint7_linear_41_13" x1="268.597" y1="83.6911" x2="235.574" y2="190.767" gradientUnits="userSpaceOnUse">
<stop stop-color="#4F52FF"/>
<stop offset="1" stop-color="#4042E2"/>
</linearGradient>
<linearGradient id="paint8_linear_41_13" x1="67.6248" y1="194.08" x2="157.447" y2="245.349" gradientUnits="userSpaceOnUse">
<stop stop-color="#FEBBBA"/>
<stop offset="1" stop-color="#FF928E"/>
</linearGradient>
<linearGradient id="paint9_linear_41_13" x1="79.367" y1="245.343" x2="119.826" y2="343.265" gradientUnits="userSpaceOnUse">
<stop stop-color="#09005D"/>
<stop offset="1" stop-color="#1A0F91"/>
</linearGradient>
<linearGradient id="paint10_linear_41_13" x1="76.314" y1="206.866" x2="-231.012" y2="14.4759" gradientUnits="userSpaceOnUse">
<stop stop-color="#FEBBBA"/>
<stop offset="1" stop-color="#FF928E"/>
</linearGradient>
<linearGradient id="paint11_linear_41_13" x1="95.058" y1="270.89" x2="154.495" y2="358.588" gradientUnits="userSpaceOnUse">
<stop stop-color="#09005D"/>
<stop offset="1" stop-color="#1A0F91"/>
</linearGradient>
<linearGradient id="paint12_linear_41_13" x1="594.799" y1="1169.84" x2="680.639" y2="1382.49" gradientUnits="userSpaceOnUse">
<stop stop-color="#E1473D"/>
<stop offset="1" stop-color="#E9605A"/>
</linearGradient>
<linearGradient id="paint13_linear_41_13" x1="167.287" y1="19.877" x2="206.34" y2="64.962" gradientUnits="userSpaceOnUse">
<stop stop-color="#09005D"/>
<stop offset="1" stop-color="#1A0F91"/>
</linearGradient>
<linearGradient id="paint14_linear_41_13" x1="279.347" y1="-57.5085" x2="254.961" y2="14.6749" gradientUnits="userSpaceOnUse">
<stop stop-color="#FF928E"/>
<stop offset="1" stop-color="#FE7062"/>
</linearGradient>
<linearGradient id="paint15_linear_41_13" x1="224.944" y1="164.528" x2="314.42" y2="164.528" gradientUnits="userSpaceOnUse">
<stop stop-color="#FEBBBA"/>
<stop offset="1" stop-color="#FF928E"/>
</linearGradient>
<linearGradient id="paint16_linear_41_13" x1="188.527" y1="121.763" x2="190.595" y2="89.5344" gradientUnits="userSpaceOnUse">
<stop stop-color="#FEBBBA"/>
<stop offset="1" stop-color="#FF928E"/>
</linearGradient>
<linearGradient id="paint17_linear_41_13" x1="191.573" y1="94.4942" x2="152.639" y2="19.9837" gradientUnits="userSpaceOnUse">
<stop stop-color="#FEBBBA"/>
<stop offset="1" stop-color="#FF928E"/>
</linearGradient>
<linearGradient id="paint18_linear_41_13" x1="142.926" y1="52.2373" x2="197.445" y2="63.1761" gradientUnits="userSpaceOnUse">
<stop stop-color="#09005D"/>
<stop offset="1" stop-color="#1A0F91"/>
</linearGradient>
<linearGradient id="paint19_linear_41_13" x1="200.484" y1="89.8369" x2="161.551" y2="15.3269" gradientUnits="userSpaceOnUse">
<stop stop-color="#FEBBBA"/>
<stop offset="1" stop-color="#FF928E"/>
</linearGradient>
<linearGradient id="paint20_linear_41_13" x1="220.841" y1="163.495" x2="174.724" y2="178.621" gradientUnits="userSpaceOnUse">
<stop stop-color="#09005D"/>
<stop offset="1" stop-color="#1A0F91"/>
</linearGradient>
<linearGradient id="paint21_linear_41_13" x1="34.7806" y1="-22.1875" x2="79.6512" y2="55.8484" gradientUnits="userSpaceOnUse">
<stop stop-color="#09005D"/>
<stop offset="1" stop-color="#1A0F91"/>
</linearGradient>
</defs>
</svg>
