<svg width="308" height="325" viewBox="0 0 308 325" fill="none" xmlns="http://www.w3.org/2000/svg">
<path d="M178.558 203.553C173.808 189.828 168.859 168.839 173.877 145.367C179.639 118.414 193.274 112.82 205.132 83.9178C224.152 37.5598 208.804 3.8547 219.681 0.484361C231.001 -3.02344 259.528 29.7997 259.339 65.3883C259.164 98.3463 234.424 121.533 231.982 123.757C213.142 140.905 198.128 137.561 186.228 153.755C174.79 169.32 176.033 189.59 178.558 203.553Z" fill="url(#paint0_linear_66_19)"/>
<mask id="mask0_66_19" style="mask-type:luminance" maskUnits="userSpaceOnUse" x="171" y="0" width="89" height="204">
<path d="M178.558 203.553C173.808 189.828 168.859 168.839 173.877 145.367C179.639 118.414 193.274 112.82 205.132 83.9178C224.152 37.5598 208.804 3.8547 219.681 0.484361C231.001 -3.02344 259.528 29.7997 259.339 65.3883C259.164 98.3463 234.424 121.533 231.982 123.757C213.142 140.905 198.128 137.561 186.228 153.755C174.79 169.32 176.033 189.59 178.558 203.553Z" fill="white"/>
</mask>
<g mask="url(#mask0_66_19)">
<path opacity="0.5" d="M179.022 234.376C169.691 196.957 171.425 164.719 184.174 138.56C191.877 122.755 201.977 112.398 210.888 103.261C221.68 92.1943 231 82.6364 234.656 66.3658C239.83 43.3387 231.007 17.0147 208.431 -11.8755L208.799 -12.1632C231.465 16.8427 240.318 43.2979 235.112 66.468C231.427 82.8681 222.064 92.4696 211.222 103.587C202.336 112.699 192.264 123.028 184.595 138.764C171.894 164.823 170.172 196.953 179.475 234.263L179.022 234.376Z" fill="white"/>
</g>
<mask id="mask1_66_19" style="mask-type:luminance" maskUnits="userSpaceOnUse" x="171" y="0" width="89" height="204">
<path d="M178.558 203.553C173.808 189.828 168.859 168.839 173.877 145.367C179.639 118.414 193.274 112.82 205.132 83.9178C224.152 37.5598 208.804 3.8547 219.681 0.484361C231.001 -3.02344 259.528 29.7997 259.339 65.3883C259.164 98.3463 234.424 121.533 231.982 123.757C213.142 140.905 198.128 137.561 186.228 153.755C174.79 169.32 176.033 189.59 178.558 203.553Z" fill="white"/>
</mask>
<g mask="url(#mask1_66_19)">
<path opacity="0.5" d="M233.24 72.1188L233.173 71.654C232.108 64.1599 229.415 56.859 225.385 50.5405C218.984 40.5058 210.571 34.7833 204.64 31.7496L204.853 31.3335C210.835 34.3936 219.322 40.1661 225.778 50.2891C229.761 56.5327 232.449 63.7265 233.568 71.123C239.357 65.2014 243.868 58.0236 246.629 50.3359C251.394 37.0666 250.219 25.067 248.393 17.3371L248.848 17.2299C250.688 25.0212 251.873 37.1165 247.069 50.4937C244.233 58.3903 239.565 65.753 233.57 71.7859L233.24 72.1188Z" fill="white"/>
</g>
<mask id="mask2_66_19" style="mask-type:luminance" maskUnits="userSpaceOnUse" x="171" y="0" width="89" height="204">
<path d="M178.558 203.553C173.808 189.828 168.859 168.839 173.877 145.367C179.639 118.414 193.274 112.82 205.132 83.9178C224.152 37.5598 208.804 3.8547 219.681 0.484361C231.001 -3.02344 259.528 29.7997 259.339 65.3883C259.164 98.3463 234.424 121.533 231.982 123.757C213.142 140.905 198.128 137.561 186.228 153.755C174.79 169.32 176.033 189.59 178.558 203.553Z" fill="white"/>
</mask>
<g mask="url(#mask2_66_19)">
<path opacity="0.5" d="M205.631 109.407L205.931 108.99C208.847 104.923 213.641 96.3771 212.989 84.8309C212.392 74.2488 207.455 66.7023 204.565 63.146L204.928 62.8512C207.853 66.4515 212.851 74.0911 213.455 84.8043C214.094 96.1115 209.574 104.576 206.606 108.843C218.222 107.657 229.391 103.794 238.937 97.6562C260.809 83.5925 268.545 61.5289 270.856 52.6956L271.308 52.8137C268.983 61.7001 261.2 83.8966 239.189 98.049C229.442 104.316 218.015 108.227 206.143 109.358L205.631 109.407Z" fill="white"/>
</g>
<mask id="mask3_66_19" style="mask-type:luminance" maskUnits="userSpaceOnUse" x="171" y="0" width="89" height="204">
<path d="M178.558 203.553C173.808 189.828 168.859 168.839 173.877 145.367C179.639 118.414 193.274 112.82 205.132 83.9178C224.152 37.5598 208.804 3.8547 219.681 0.484361C231.001 -3.02344 259.528 29.7997 259.339 65.3883C259.164 98.3463 234.424 121.533 231.982 123.757C213.142 140.905 198.128 137.561 186.228 153.755C174.79 169.32 176.033 189.59 178.558 203.553Z" fill="white"/>
</mask>
<g mask="url(#mask3_66_19)">
<path opacity="0.5" d="M182.154 143.999L182.143 143.766C181.875 138.339 181.875 132.841 182.143 127.424C182.72 115.752 184.554 104.062 187.594 92.6782L188.045 92.7987C185.014 104.151 183.185 115.808 182.61 127.447C182.346 132.771 182.342 138.174 182.598 143.511C195.479 142.896 207.823 139.897 219.291 134.596C245.229 122.607 259.403 101.914 265.543 90.6461L265.954 90.8697C259.786 102.188 245.548 122.975 219.487 135.02C207.895 140.378 195.413 143.396 182.387 143.988L182.154 143.999Z" fill="white"/>
</g>
<path d="M179.154 197.456C176.428 187.685 173.794 172.249 180.383 157.474C191.878 131.696 218.505 136.94 240.333 108.289C257.939 85.1805 249.904 69.5801 270.422 53.265C285.147 41.556 304.505 37.4882 307.275 41.7434C310.253 46.3182 290.856 55.5941 282.031 78.5231C270.548 108.36 290.761 125.478 278.533 144.185C269.231 158.413 254.07 153.815 221.013 169.846C201.793 179.166 187.78 190.001 179.154 197.456Z" fill="url(#paint1_linear_66_19)"/>
<mask id="mask4_66_19" style="mask-type:luminance" maskUnits="userSpaceOnUse" x="176" y="40" width="132" height="158">
<path d="M179.154 197.456C176.428 187.685 173.794 172.249 180.383 157.474C191.878 131.696 218.505 136.94 240.333 108.289C257.939 85.1805 249.904 69.5801 270.422 53.265C285.147 41.556 304.505 37.4882 307.275 41.7434C310.253 46.3182 290.856 55.5941 282.031 78.5231C270.548 108.36 290.761 125.478 278.533 144.185C269.231 158.413 254.07 153.815 221.013 169.846C201.793 179.166 187.78 190.001 179.154 197.456Z" fill="white"/>
</mask>
<g mask="url(#mask4_66_19)">
<path opacity="0.5" d="M174.632 231.466L174.165 231.466C174.203 195.781 182.991 170.164 200.286 155.328C208.513 148.272 216.484 145.384 224.192 142.592C233.667 139.159 242.616 135.916 250.853 125.233C258.217 115.683 259.59 107.196 261.044 98.2095C262.383 89.9303 263.768 81.369 269.791 71.0603C278.823 55.6007 294.036 43.6857 315.008 35.6462L315.175 36.0825C294.305 44.0829 279.172 55.9305 270.195 71.2962C264.216 81.5298 262.838 90.0471 261.505 98.2841C260.042 107.33 258.659 115.875 251.223 125.518C242.903 136.309 233.892 139.574 224.351 143.031C216.682 145.809 208.752 148.683 200.591 155.684C183.403 170.426 174.67 195.924 174.632 231.466Z" fill="white"/>
</g>
<mask id="mask5_66_19" style="mask-type:luminance" maskUnits="userSpaceOnUse" x="176" y="40" width="132" height="158">
<path d="M179.154 197.456C176.428 187.685 173.794 172.249 180.383 157.474C191.878 131.696 218.505 136.94 240.333 108.289C257.939 85.1805 249.904 69.5801 270.422 53.265C285.147 41.556 304.505 37.4882 307.275 41.7434C310.253 46.3182 290.856 55.5941 282.031 78.5231C270.548 108.36 290.761 125.478 278.533 144.185C269.231 158.413 254.07 153.815 221.013 169.846C201.793 179.166 187.78 190.001 179.154 197.456Z" fill="white"/>
</mask>
<g mask="url(#mask5_66_19)">
<path opacity="0.5" d="M262.642 91.4492L262.422 90.837C260.389 85.1753 259.46 79.3226 259.662 73.4415C260.136 59.5796 266.864 49.3812 270.831 44.5358L271.193 44.8319C267.262 49.6317 260.598 59.7329 260.128 73.4576C259.936 79.0673 260.783 84.6515 262.647 90.066C265.826 81.526 270.572 75.3535 276.76 71.7152C283.26 67.8933 289.181 68.06 295.451 68.2367C299.327 68.3451 303.335 68.4592 307.534 67.5541C320.388 64.7835 331.694 53.0036 341.137 32.542L341.561 32.7377C332.054 53.3398 320.638 65.2076 307.632 68.0108C303.378 68.9275 299.341 68.8129 295.438 68.7037C289.238 68.5287 283.381 68.3637 276.996 72.1181C270.759 75.7861 266.003 82.0839 262.862 90.8371L262.642 91.4492Z" fill="white"/>
</g>
<mask id="mask6_66_19" style="mask-type:luminance" maskUnits="userSpaceOnUse" x="176" y="40" width="132" height="158">
<path d="M179.154 197.456C176.428 187.685 173.794 172.249 180.383 157.474C191.878 131.696 218.505 136.94 240.333 108.289C257.939 85.1805 249.904 69.5801 270.422 53.265C285.147 41.556 304.505 37.4882 307.275 41.7434C310.253 46.3182 290.856 55.5941 282.031 78.5231C270.548 108.36 290.761 125.478 278.533 144.185C269.231 158.413 254.07 153.815 221.013 169.846C201.793 179.166 187.78 190.001 179.154 197.456Z" fill="white"/>
</mask>
<g mask="url(#mask6_66_19)">
<path opacity="0.5" d="M248.132 128.896L248.095 128.652C247.284 123.348 246.786 117.944 246.615 112.593C246.25 101.159 247.355 89.6377 249.9 78.35L250.356 78.4527C247.82 89.7019 246.719 101.183 247.082 112.578C247.25 117.829 247.733 123.13 248.519 128.337C256.254 126.696 263.433 123.576 269.859 119.062C279.631 112.198 285.277 103.682 288.293 97.747L288.71 97.9587C285.67 103.941 279.979 112.525 270.128 119.444C263.582 124.042 256.263 127.205 248.373 128.846L248.132 128.896Z" fill="white"/>
</g>
<mask id="mask7_66_19" style="mask-type:luminance" maskUnits="userSpaceOnUse" x="176" y="40" width="132" height="158">
<path d="M179.154 197.456C176.428 187.685 173.794 172.249 180.383 157.474C191.878 131.696 218.505 136.94 240.333 108.289C257.939 85.1805 249.904 69.5801 270.422 53.265C285.147 41.556 304.505 37.4882 307.275 41.7434C310.253 46.3182 290.856 55.5941 282.031 78.5231C270.548 108.36 290.761 125.478 278.533 144.185C269.231 158.413 254.07 153.815 221.013 169.846C201.793 179.166 187.78 190.001 179.154 197.456Z" fill="white"/>
</mask>
<g mask="url(#mask7_66_19)">
<path opacity="0.5" d="M253.328 152.39C251.396 152.39 249.428 152.325 247.423 152.187C237.722 151.522 228.193 149.217 219.103 145.337L218.774 145.197L219.035 144.952C223.709 140.559 227.345 135.09 229.548 129.135C231.355 124.25 232.212 119.114 232.095 113.869L232.562 113.858C232.681 119.163 231.814 124.357 229.986 129.297C227.799 135.209 224.216 140.647 219.614 145.047C228.557 148.822 237.922 151.067 247.455 151.721C268.684 153.178 285.899 146.456 296.602 140.56L296.827 140.969C287.08 146.338 271.958 152.39 253.328 152.39Z" fill="white"/>
</g>
<mask id="mask8_66_19" style="mask-type:luminance" maskUnits="userSpaceOnUse" x="176" y="40" width="132" height="158">
<path d="M179.154 197.456C176.428 187.685 173.794 172.249 180.383 157.474C191.878 131.696 218.505 136.94 240.333 108.289C257.939 85.1805 249.904 69.5801 270.422 53.265C285.147 41.556 304.505 37.4882 307.275 41.7434C310.253 46.3182 290.856 55.5941 282.031 78.5231C270.548 108.36 290.761 125.478 278.533 144.185C269.231 158.413 254.07 153.815 221.013 169.846C201.793 179.166 187.78 190.001 179.154 197.456Z" fill="white"/>
</mask>
<g mask="url(#mask8_66_19)">
<path opacity="0.5" d="M233.224 173.081C230.66 169.963 225.055 164.433 216.33 162.43C201.04 158.92 189.083 169.235 187.771 170.423L187.346 170.806L187.381 170.235C187.711 164.739 188.743 159.323 190.448 154.138C193.335 145.359 198.05 137.392 204.461 130.459L204.804 130.776C198.439 137.66 193.758 145.569 190.892 154.284C189.258 159.254 188.246 164.439 187.883 169.703C190.474 167.498 201.981 158.656 216.434 161.975C225.295 164.009 230.983 169.621 233.585 172.785L233.224 173.081Z" fill="white"/>
</g>
<path d="M177.889 189.042C183.357 184.341 191.799 177.856 203.134 172.082C229.532 158.637 242.908 163.683 257.331 151.202C275.062 135.859 271.616 113.722 277.436 113.864C285.993 114.072 303.192 162.161 282.225 182.261C268.796 195.135 244.515 191.925 239.559 191.137C227.824 189.272 224.641 185.123 212.749 183.573C198.287 181.687 185.897 185.594 177.889 189.042Z" fill="url(#paint2_linear_66_19)"/>
<mask id="mask9_66_19" style="mask-type:luminance" maskUnits="userSpaceOnUse" x="177" y="113" width="116" height="80">
<path d="M177.889 189.042C183.357 184.341 191.799 177.856 203.134 172.082C229.532 158.637 242.908 163.683 257.331 151.202C275.062 135.859 271.616 113.722 277.436 113.864C285.993 114.072 303.192 162.161 282.225 182.261C268.796 195.135 244.515 191.925 239.559 191.137C227.824 189.272 224.641 185.123 212.749 183.573C198.287 181.687 185.897 185.594 177.889 189.042Z" fill="white"/>
</mask>
<g mask="url(#mask9_66_19)">
<path opacity="0.5" d="M171.391 193.18L171.105 192.81C186.761 180.702 202.399 174.683 217.591 174.934C225.781 175.067 232.146 176.945 237.761 178.602C245.15 180.783 251.533 182.665 259.251 179.49C269.105 175.435 276.633 164.948 280.447 149.962C286.558 125.951 273.03 105.907 268.738 100.335L269.108 100.05C273.433 105.664 287.063 125.862 280.9 150.077C277.049 165.21 269.423 175.809 259.429 179.922C251.558 183.161 245.103 181.256 237.628 179.05C232.042 177.401 225.71 175.533 217.583 175.401C202.508 175.149 186.961 181.138 171.391 193.18Z" fill="white"/>
<path opacity="0.5" d="M275.34 163.899L275.428 163.438C276.73 156.556 276.73 149.592 275.428 142.737C273.993 135.185 270.911 127.836 266.517 121.486L266.901 121.22C271.332 127.623 274.439 135.034 275.887 142.65C277.171 149.408 277.2 156.273 275.973 163.06C279.667 161.16 284.66 157.709 288.303 151.831C296.071 139.298 291.568 125.504 290.587 122.866L291.025 122.703C292.019 125.377 296.583 139.358 288.7 152.077C284.859 158.275 279.544 161.813 275.761 163.691L275.34 163.899Z" fill="white"/>
<path opacity="0.5" d="M265.467 190.084C260.634 190.084 255.423 189.419 250.056 187.681C243.528 185.566 237.512 182.136 232.175 177.486L231.641 177.02L232.348 177.077C242.599 177.897 252.203 173.33 257.404 165.154C262.959 156.42 261.124 147.036 260.429 144.368L260.881 144.25C261.588 146.964 263.454 156.511 257.798 165.405C252.623 173.54 243.176 178.172 233.014 177.59C238.169 181.967 243.948 185.211 250.2 187.236C267.999 193.001 284.079 186.853 290.166 183.942L290.367 184.363C286.064 186.421 276.806 190.084 265.467 190.084Z" fill="white"/>
<path opacity="0.5" d="M239.469 201.526C236.964 196.166 231.004 186.347 219.229 180.803C214.273 178.471 208.914 177.182 203.299 176.974L203.285 176.507C212.686 175.59 219.53 172.93 223.626 168.601C223.994 168.212 224.471 167.672 225.192 166.856C226.162 165.758 227.628 164.098 229.88 161.622C232.127 159.15 234.401 156.694 236.638 154.324L236.978 154.644C234.743 157.013 232.471 159.466 230.226 161.936C227.976 164.41 226.512 166.068 225.542 167.165C224.818 167.985 224.339 168.527 223.965 168.923C220.169 172.935 214.085 175.538 205.859 176.675C210.615 177.133 215.169 178.376 219.428 180.38C231.336 185.986 237.36 195.911 239.892 201.328L239.469 201.526Z" fill="white"/>
</g>
<path d="M18.2603 195.117L141.785 202.645L278.932 194.741L143.666 237.626L18.2603 195.117Z" fill="url(#paint3_linear_66_19)"/>
<path d="M118.253 324.626L17.7391 285.428C7.85854 282.768 0.181885 272.979 0.181885 263.485V263.38C0.181885 253.887 7.85854 247.517 17.7391 249.26L125.371 279.273L118.253 324.626Z" fill="url(#paint4_linear_66_19)"/>
<path d="M279.1 292.003L122.98 322.5C113.051 323.609 104.888 316.685 104.888 307.019V300.462C104.888 290.796 113.051 282.311 122.98 281.521L279.1 256.109C272.085 269.168 270.467 281.385 279.1 292.003Z" fill="url(#paint5_linear_66_19)"/>
<path d="M280.479 293.761L124.308 324.534C111.358 326.003 100.626 316.932 100.626 304.287V304.148C100.626 291.503 111.358 280.378 124.308 279.368L280.479 254.207C281.434 254.132 282.206 254.927 282.206 255.981C282.206 257.035 281.434 257.953 280.479 258.031L124.308 283.734C113.89 284.583 105.287 293.546 105.287 303.702V303.841C105.287 313.997 113.89 321.314 124.308 320.168L280.479 289.937C281.434 289.832 282.206 290.602 282.206 291.656C282.206 292.71 281.434 293.653 280.479 293.761Z" fill="url(#paint6_linear_66_19)"/>
<path d="M122.375 279.379L17.7391 249.26C7.85855 247.517 0.181885 234.566 0.181885 220.311V220.154C0.181885 205.899 7.85855 194.587 17.7391 194.954L128.591 211.776L122.375 279.379Z" fill="url(#paint7_linear_66_19)"/>
<path d="M279.1 251.44L131.865 275.52C117.106 276.633 104.888 265.789 104.888 251.276V241.431C104.888 226.918 117.106 214.82 131.865 214.417L279.1 197.545C272.063 217.112 270.49 235.436 279.1 251.44Z" fill="url(#paint8_linear_66_19)"/>
<path d="M280.479 254.207L124.308 279.368C111.358 280.378 100.626 265.768 100.626 246.781V246.573C100.626 227.586 111.358 211.872 124.308 211.55L280.479 194.816C281.434 194.792 282.206 196.056 282.206 197.639C282.206 199.222 281.434 200.529 280.479 200.557L124.308 218.106C113.89 218.419 105.287 231.084 105.287 246.333V246.541C105.287 261.791 113.89 273.571 124.308 272.812L280.479 248.465C281.434 248.396 282.206 249.623 282.206 251.206C282.206 252.789 281.434 254.132 280.479 254.207Z" fill="url(#paint9_linear_66_19)"/>
<path opacity="0.5" d="M90.6732 265.093L66.4163 258.527C61.3136 244.6 61.6972 231.806 66.4163 216.514L90.6732 220.814C86.1942 236.906 86.8722 251.481 90.6732 265.093Z" fill="white"/>
<path d="M283.414 186.812L16.616 184.239V191.853C16.616 193.919 17.7797 195.676 19.3557 195.99L94.7982 210.983C95.6936 211.161 96.6015 211.208 97.5049 211.123L280.515 194.029C282.149 193.876 283.414 192.114 283.414 189.991V186.812Z" fill="url(#paint10_linear_66_19)"/>
<path d="M197.528 174.47L19.5523 188.398C16.3675 188.647 13.7781 185.999 13.7781 182.482V41.5822C13.7781 38.0653 16.3675 35.2142 19.5523 35.2142H197.528C200.152 35.2142 202.273 37.7914 202.273 40.9708V168.342C202.273 171.521 200.152 174.264 197.528 174.47Z" fill="url(#paint11_linear_66_19)"/>
<path d="M200.366 174.47L22.3902 188.398C19.2053 188.647 16.616 185.999 16.616 182.482V41.5822C16.616 38.0653 19.2053 35.2142 22.3902 35.2142H200.366C202.99 35.2142 205.111 37.7914 205.111 40.9708V168.342C205.111 171.521 202.99 174.264 200.366 174.47Z" fill="url(#paint12_linear_66_19)"/>
<path d="M194.822 165.49L29.0555 177.589C26.4638 177.778 24.3577 175.604 24.3577 172.733V49.3748C24.3577 46.5037 26.4638 44.1665 29.0555 44.1547L194.822 43.3951C196.986 43.3851 198.737 45.497 198.737 48.1121V160.469C198.737 163.084 196.986 165.332 194.822 165.49Z" fill="url(#paint13_linear_66_19)"/>
<path d="M117.664 39.0682C117.664 40.3773 116.748 41.4417 115.616 41.4456C114.484 41.4495 113.565 40.3888 113.565 39.0767C113.565 37.7646 114.484 36.7002 115.616 36.6992C116.748 36.6984 117.664 37.7589 117.664 39.0682Z" fill="white"/>
<path opacity="0.48" d="M157.486 135.826C143.765 127.651 132.977 138.009 122.566 127.789C116.253 121.592 119.352 116.971 111.585 107.711C102.983 97.4552 97.3823 100.903 88.7371 91.6723C77.8056 80.0007 83.2729 70.92 73.8568 62.5402C62.4338 52.3743 50.1148 61.7835 39.2408 52.0341C34.5508 47.8292 31.9776 41.7159 30.6337 35.2144H19.9944C18.1299 35.2144 16.616 36.8878 16.616 38.9521V185.007C16.616 187.072 18.1301 188.626 19.9944 188.48L201.381 174.221C202.271 174.151 203.061 173.576 203.567 172.741C190.289 172.205 182.132 167.276 176.917 162.18C166.716 152.211 168.486 142.38 157.486 135.826Z" fill="white"/>
<path d="M195.925 173.838L16.616 188.499L94.7982 204.037C95.6936 204.214 96.6015 204.262 97.5049 204.177L283.414 186.812L198.778 173.938C197.831 173.794 196.876 173.76 195.925 173.838Z" fill="url(#paint14_linear_66_19)"/>
<path opacity="0.3" d="M42.78 188.868L192.06 176.48L238.261 183.451L90.2669 196.693L42.78 188.868Z" fill="url(#paint15_linear_66_19)"/>
<path d="M185.576 90.9691L152.578 73.9254L117.962 56.046L44.1453 94.1725L44.3804 94.2834V95.6369L118.033 130.357L185.51 92.3171V91.0249L185.475 91.0257L185.576 90.9691Z" fill="white"/>
<path d="M160.824 110.58L117.962 134.816L70.8386 112.783V144.661C70.8386 149.886 74.8168 154.254 80.0201 154.729C88.4511 155.498 101.887 156.259 116.906 155.333C131.528 154.431 144.333 152.128 152.286 150.416C157.27 149.343 160.824 144.936 160.824 139.838L160.824 110.58Z" fill="white"/>
<path d="M185.536 140.66C185.06 140.686 185.102 140.264 185.102 139.745V93.9529C185.102 92.9171 184.138 92.2603 183.187 92.2827L118.462 93.8015C117.944 93.8136 117.525 93.3759 117.525 92.8344C117.525 92.2929 117.944 91.8359 118.462 91.8244L183.187 90.3851C185.088 90.3428 185.969 91.861 185.969 93.9316V139.698C185.969 140.216 186.01 140.634 185.536 140.66Z" fill="white"/>
<path d="M186.911 91.535C186.471 90.6843 187.086 90.2986 185.97 90.3234L118.462 91.8246C117.944 91.8362 117.525 92.293 117.525 92.8345C117.525 93.3759 117.945 93.8136 118.462 93.8016L183.187 92.2828C183.715 92.2704 184.246 92.4678 184.614 92.8223L185.51 92.3172L186.911 91.535Z" fill="url(#paint16_linear_66_19)"/>
<path d="M187.596 131.037L186.75 129.658C186.471 129.132 185.89 128.831 185.322 128.868C184.754 128.904 184.209 129.278 183.945 129.84L183.198 131.358C183.026 131.724 182.903 132.129 182.903 132.533V145.008C182.903 145.276 184.203 145.418 185.51 145.342C186.816 145.267 188.109 144.975 188.109 144.708V132.24C188.109 131.81 187.79 131.402 187.596 131.037Z" fill="white"/>
<path d="M253.935 250.002C249.96 253.489 243.966 253.206 240.271 249.424C235.664 244.709 227.023 241.509 211.538 251.31C183.879 268.815 214.45 318.328 231.919 319.775C249.388 321.221 255.21 316.873 263.945 319.775C272.679 322.677 285.053 303.253 290.148 285.67C295.243 268.087 282.142 247.214 269.04 244.912C262.592 243.78 257.73 246.672 253.935 250.002Z" fill="url(#paint17_linear_66_19)"/>
<path opacity="0.3" d="M276.765 303.035C276.765 303.035 276.765 303.035 270.114 307.148C263.462 311.261 260.673 295.272 248.442 285.228C236.211 275.184 212.179 282.414 213.466 265.148C214.108 256.54 218.43 250.198 222.602 246.001C219.373 246.979 215.704 248.674 211.539 251.31C183.879 268.815 214.45 318.328 231.919 319.775C249.388 321.221 255.211 316.872 263.945 319.775C271.444 322.266 281.626 308.301 287.58 293.173L276.765 303.035Z" fill="url(#paint18_linear_66_19)"/>
<path d="M249.44 252.958C249.44 252.958 261.943 232.593 240.837 226.77C219.731 220.948 210.755 213.136 210.755 213.136C210.755 213.136 216.092 230.11 219.973 242.875C223.855 255.639 242.517 258.525 249.44 252.958Z" fill="url(#paint19_linear_66_19)"/>
<path d="M255.2 229.22C251.561 229.64 253.016 223.948 249.527 227.747C246.491 231.053 245.955 249.264 245.867 253.93C245.855 254.538 246.329 255.042 246.936 255.07C247.576 255.099 248.11 254.588 248.107 253.948C248.061 243.914 258.885 232.591 260.052 230.289C261.265 227.898 258.839 228.8 255.2 229.22Z" fill="url(#paint20_linear_66_19)"/>
<path opacity="0.3" d="M240.401 241.114C238.749 231.966 231.667 233.652 217.354 221.28C215.048 219.286 213.128 217.384 211.526 215.594C213.143 220.755 216.988 233.059 219.973 242.875C223.435 254.257 238.647 257.783 246.81 254.467C244.112 252.08 241.645 248.003 240.401 241.114Z" fill="url(#paint21_linear_66_19)"/>
<defs>
<linearGradient id="paint0_linear_66_19" x1="244.65" y1="33.5977" x2="183.642" y2="131.838" gradientUnits="userSpaceOnUse">
<stop stop-color="#FCB148"/>
<stop offset="0.0521" stop-color="#FDBA46"/>
<stop offset="0.1424" stop-color="#FFC244"/>
<stop offset="0.3183" stop-color="#FFC444"/>
<stop offset="0.4849" stop-color="#FDB946"/>
<stop offset="0.7754" stop-color="#F99C4D"/>
<stop offset="0.8658" stop-color="#F8924F"/>
<stop offset="1" stop-color="#F8924F"/>
</linearGradient>
<linearGradient id="paint1_linear_66_19" x1="262.849" y1="52.2023" x2="214.048" y2="197.805" gradientUnits="userSpaceOnUse">
<stop stop-color="#AA80F9"/>
<stop offset="0.9964" stop-color="#6165D7"/>
</linearGradient>
<linearGradient id="paint2_linear_66_19" x1="295.088" y1="132.264" x2="151.682" y2="250.062" gradientUnits="userSpaceOnUse">
<stop offset="0.0036" stop-color="#E38DDD"/>
<stop offset="1" stop-color="#9571F6"/>
</linearGradient>
<linearGradient id="paint3_linear_66_19" x1="18.2603" y1="216.184" x2="278.932" y2="216.184" gradientUnits="userSpaceOnUse">
<stop stop-color="#AA80F9"/>
<stop offset="0.9964" stop-color="#6165D7"/>
</linearGradient>
<linearGradient id="paint4_linear_66_19" x1="51.2852" y1="310.354" x2="68.7257" y2="270.686" gradientUnits="userSpaceOnUse">
<stop stop-color="#FFC444"/>
<stop offset="0.9964" stop-color="#F36F56"/>
</linearGradient>
<linearGradient id="paint5_linear_66_19" x1="104.888" y1="289.363" x2="279.1" y2="289.363" gradientUnits="userSpaceOnUse">
<stop offset="0.494" stop-color="#EAEDF3"/>
<stop offset="1" stop-color="white"/>
</linearGradient>
<linearGradient id="paint6_linear_66_19" x1="100.626" y1="289.446" x2="282.206" y2="289.446" gradientUnits="userSpaceOnUse">
<stop stop-color="#FFC444"/>
<stop offset="0.9964" stop-color="#F36F56"/>
</linearGradient>
<linearGradient id="paint7_linear_66_19" x1="77.3536" y1="192.894" x2="45.5511" y2="300.019" gradientUnits="userSpaceOnUse">
<stop stop-color="#AA80F9"/>
<stop offset="0.9964" stop-color="#6165D7"/>
</linearGradient>
<linearGradient id="paint8_linear_66_19" x1="104.888" y1="236.571" x2="279.1" y2="236.571" gradientUnits="userSpaceOnUse">
<stop offset="0.494" stop-color="#EAEDF3"/>
<stop offset="1" stop-color="white"/>
</linearGradient>
<linearGradient id="paint9_linear_66_19" x1="100.626" y1="237.116" x2="282.206" y2="237.116" gradientUnits="userSpaceOnUse">
<stop stop-color="#AA80F9"/>
<stop offset="0.9964" stop-color="#6165D7"/>
</linearGradient>
<linearGradient id="paint10_linear_66_19" x1="129.245" y1="197.31" x2="110.484" y2="205.19" gradientUnits="userSpaceOnUse">
<stop stop-color="#40447E"/>
<stop offset="0.9964" stop-color="#3C3B6B"/>
</linearGradient>
<linearGradient id="paint11_linear_66_19" x1="104.01" y1="106.634" x2="83.1708" y2="115.386" gradientUnits="userSpaceOnUse">
<stop stop-color="#40447E"/>
<stop offset="0.9964" stop-color="#3C3B6B"/>
</linearGradient>
<linearGradient id="paint12_linear_66_19" x1="16.6159" y1="111.814" x2="205.111" y2="111.814" gradientUnits="userSpaceOnUse">
<stop stop-color="#40447E"/>
<stop offset="0.9964" stop-color="#3C3B6B"/>
</linearGradient>
<linearGradient id="paint13_linear_66_19" x1="149.429" y1="74.1375" x2="43.5211" y2="160.225" gradientUnits="userSpaceOnUse">
<stop stop-color="#FF9085"/>
<stop offset="1" stop-color="#FB6FBB"/>
</linearGradient>
<linearGradient id="paint14_linear_66_19" x1="16.6159" y1="189.007" x2="283.414" y2="189.007" gradientUnits="userSpaceOnUse">
<stop stop-color="#40447E"/>
<stop offset="0.9964" stop-color="#3C3B6B"/>
</linearGradient>
<linearGradient id="paint15_linear_66_19" x1="42.78" y1="186.587" x2="238.261" y2="186.587" gradientUnits="userSpaceOnUse">
<stop stop-color="#40447E"/>
<stop offset="0.9964" stop-color="#3C3B6B"/>
</linearGradient>
<linearGradient id="paint16_linear_66_19" x1="162.398" y1="83.663" x2="59.0666" y2="167.656" gradientUnits="userSpaceOnUse">
<stop stop-color="#FF9085"/>
<stop offset="1" stop-color="#FB6FBB"/>
</linearGradient>
<linearGradient id="paint17_linear_66_19" x1="259.907" y1="259.147" x2="211.14" y2="325.383" gradientUnits="userSpaceOnUse">
<stop stop-color="#FF9085"/>
<stop offset="1" stop-color="#FB6FBB"/>
</linearGradient>
<linearGradient id="paint18_linear_66_19" x1="259.907" y1="259.147" x2="211.14" y2="325.383" gradientUnits="userSpaceOnUse">
<stop stop-color="#FF9085"/>
<stop offset="1" stop-color="#FB6FBB"/>
</linearGradient>
<linearGradient id="paint19_linear_66_19" x1="228.091" y1="207.748" x2="241.191" y2="270.096" gradientUnits="userSpaceOnUse">
<stop stop-color="#A1F094"/>
<stop offset="1" stop-color="#4FC3BA"/>
</linearGradient>
<linearGradient id="paint20_linear_66_19" x1="261.964" y1="223.164" x2="236.843" y2="257.283" gradientUnits="userSpaceOnUse">
<stop stop-color="#311944"/>
<stop offset="1" stop-color="#6B3976"/>
</linearGradient>
<linearGradient id="paint21_linear_66_19" x1="223.632" y1="208.685" x2="236.733" y2="271.033" gradientUnits="userSpaceOnUse">
<stop stop-color="#38E8C7"/>
<stop offset="1" stop-color="#425F63"/>
</linearGradient>
</defs>
</svg>
